/* XPM */
static char * close_prelight_xpm[] = {
"32 34 52 1",
" 	c None",
".	c #8E8E8E",
"+	c #FFFFFF",
"@	c #FEFEFE",
"#	c #F7F7F7",
"$	c #F5F5F5",
"%	c #DADCDA",
"&	c #BDC0BD",
"*	c #B2B6B2",
"=	c #C3C6C3",
"-	c #ECEDEC",
";	c #F6F6F6",
">	c #FDFDFD",
",	c #B3B7B3",
"'	c #FCFCFC",
")	c #B4B7B4",
"!	c #FBFBFB",
"~	c #B4B8B4",
"{	c #FAFAFA",
"]	c #F4F4F4",
"^	c #B5B8B5",
"/	c #F9F9F9",
"(	c #F8F8F8",
"_	c #B5B9B5",
":	c #F3F3F3",
"<	c #B6B9B6",
"[	c #44494B",
"}	c #B6BAB6",
"|	c #B7BAB7",
"1	c #F2F2F2",
"2	c #EEEEEE",
"3	c #B8BBB8",
"4	c #F1F1F1",
"5	c #B9BBB9",
"6	c #B9BCB9",
"7	c #F0F0F0",
"8	c #BABCBA",
"9	c #BABDBA",
"0	c #BBBDBB",
"a	c #EFEFEF",
"b	c #BBBEBB",
"c	c #BCBEBC",
"d	c #EDEDED",
"e	c #BDBFBD",
"f	c #ECECEC",
"g	c #C5C7C5",
"h	c #E1E1E1",
"i	c #EBEBEB",
"j	c #DFDFDF",
"k	c #C7C9C7",
"l	c #DDDEDD",
"m	c #C5C6C5",
"................................",
"++++++++++++++++++@@@+++++++++++",
"#$%&************************&%$#",
"#%=-+++++++++++++++++@++++++-=%#",
";&-++++++++++++++++++@+++++++-&;",
";*+@@@@@@@@@@@@@@@@@@>@@@@@@@+*;",
";,@>>>>>>>>>>>>>>>>>>'>>>>>>>@,;",
"$,@>>>>>>>>>>>>>>>>>>'>>>>>>>@,$",
"$)@''''''''''''''''''!'''''''@)$",
"$~@!!!!!!!!!!!!!!!!!!{!!!!!!!@~$",
"]^>{{{{{{{{{{{{{{{{{{/{{{{{{{>^]",
"]^>//////////////////(///////>^]",
"]_'//////////////////(///////'_]",
":<'((((((((([[((((([[#((((((('<:",
":}!#########[[[;;#[[[;#######!}:",
":|{;;;;;;;;;$[[[;[[[;$;;;;;;;{|:",
"1|/$$$$$$$$$$2[[[[[1$]$$$$$$$/|1",
"13/$$$$$$$$$$]$[[[$:$]]$$$$$$/31",
"13(]]]]]]]]]]:[[[[[:]::]]]]]](31",
"45#:::::::::1[[[1[[[:11::::::#54",
"46;111111111[[[147[[[44411111;64",
"48$444444444[[44444[[77744444$84",
"79$44444444444444444444444444$97",
"79]77777777777777777777777777]97",
"701aaaaaaaaaaaaaaaaaaaaaaaaaa107",
"ab4222222222222222222222222224ba",
"ac7dddddddddddddddddddddddddd7ca",
"acaddddddddddddddddddddddddddaca",
"2e2ffffffffffffffffffffffffff2e2",
"2ghiiiiiiiiiiiiiiiiiiiiiiiiiihg2",
"2jkhffffffffffffffffffffffffhkj2",
"d7lmeeeeeeeeeeeeeeeeeeeeeeeeml7d",
"dd4;########################;4dd",
"dddddddddddddddddddddddddddddddd"};
