/* XPM */
static char * close_pressed_xpm[] = {
"32 34 69 1",
" 	c None",
".	c #8E8E8E",
"+	c #FFFFFF",
"@	c #FEFEFE",
"#	c #F7F7F7",
"$	c #F5F5F5",
"%	c #DADBDA",
"&	c #B8BCB8",
"*	c #B2B6B2",
"=	c #AAAEAA",
"-	c #A7ABA7",
";	c #F6F6F6",
">	c #A9ADA9",
",	c #B3B7B3",
"'	c #ABAFAB",
")	c #AEB1AE",
"!	c #B4B7B4",
"~	c #B0B3B0",
"{	c #B4B8B4",
"]	c #B2B5B2",
"^	c #F4F4F4",
"/	c #B5B8B5",
"(	c #B7BAB7",
"_	c #B5B9B5",
":	c #B9BCB9",
"<	c #F3F3F3",
"[	c #B6B9B6",
"}	c #BBBEBB",
"|	c #B6BAB6",
"1	c #BEC0BE",
"2	c #C0C2C0",
"3	c #BFC1BF",
"4	c #F2F2F2",
"5	c #C2C4C2",
"6	c #C0C1C0",
"7	c #C1C3C1",
"8	c #B8BBB8",
"9	c #C5C7C5",
"0	c #C4C6C4",
"a	c #C7C9C7",
"b	c #C6C8C6",
"c	c #F1F1F1",
"d	c #B9BBB9",
"e	c #C9CBC9",
"f	c #C8CAC8",
"g	c #CCCDCC",
"h	c #CBCCCB",
"i	c #BABCBA",
"j	c #CECFCE",
"k	c #CDCECD",
"l	c #F0F0F0",
"m	c #BABDBA",
"n	c #D0D1D0",
"o	c #D2D3D2",
"p	c #BBBDBB",
"q	c #D5D6D5",
"r	c #EFEFEF",
"s	c #D7D8D7",
"t	c #BCBEBC",
"u	c #D9DAD9",
"v	c #DCDCDC",
"w	c #EEEEEE",
"x	c #BDBFBD",
"y	c #DEDEDE",
"z	c #C5C6C5",
"A	c #E0E0E0",
"B	c #DFDFDF",
"C	c #EDEDED",
"D	c #DDDEDD",
"................................",
"++++++++++++++++++@@@+++++++++++",
"#$%&************************&%$#",
"#%*=------------------------=*%#",
";&=--------------------------=&;",
";*>>>>>>>>>>>>>>>>>>>>>>>>>>>>*;",
";,'''''''''''''''''''''''''''',;",
"$,)))))))))))))))))))))))))))),$",
"$!~~~~~~~~~~~~~~~~~~~~~~~~~~~~!$",
"${]]]]]]]]]]]]]]]]]]]]]]]]]]]]{$",
"^//////////////////////////////^",
"^/((((((((((((((((((((((((((((/^",
"^_::::::::::::::::::::::::::::_^",
"<[}}}}}}}}}}++}}}}}++}}}}}}}}}[<",
"<|1111111111+++111+++111111111|<",
"<(22222222223+++2+++2322222222(<",
"4(555555555556+++++75755555555(4",
"489999999999909+++90900999999984",
"48aaaaaaaaaaaa+++++aabbaaaaaaa84",
"cdeeeeeeeeeee+++f+++effeeeeeeedc",
"c:gggggggggg+++ghh+++hhhgggggg:c",
"cijjjjjjjjjj++jjjjj++kkkjjjjjjic",
"lmnnnnnnnnnnnnnnnnnnnnnnnnnnnnml",
"lmooooooooooooooooooooooooooooml",
"lpqqqqqqqqqqqqqqqqqqqqqqqqqqqqpl",
"r}ssssssssssssssssssssssssssss}r",
"rtuuuuuuuuuuuuuuuuuuuuuuuuuuuutr",
"rtvvvvvvvvvvvvvvvvvvvvvvvvvvvvtr",
"wxyyyyyyyyyyyyyyyyyyyyyyyyyyyyxw",
"wzsAAAAAAAAAAAAAAAAAAAAAAAAAAszw",
"wBzsAAAAAAAAAAAAAAAAAAAAAAAAszBw",
"ClD0xxxxxxxxxxxxxxxxxxxxxxxx0DlC",
"CCc;########################;cCC",
"CCCCCCCCCCCCCCCCCCCCCCCCCCCCCCCC"};
