/* XPM */
static char * hide_prelight_xpm[] = {
"32 34 52 1",
" 	c None",
".	c #8E8E8E",
"+	c #FFFFFF",
"@	c #F7F7F7",
"#	c #F5F5F5",
"$	c #DADCDA",
"%	c #BDC0BD",
"&	c #B2B6B2",
"*	c #C3C6C3",
"=	c #ECEDEC",
"-	c #F6F6F6",
";	c #FEFEFE",
">	c #B3B7B3",
",	c #FDFDFD",
"'	c #B4B7B4",
")	c #FCFCFC",
"!	c #B4B8B4",
"~	c #FBFBFB",
"{	c #F4F4F4",
"]	c #B5B8B5",
"^	c #FAFAFA",
"/	c #F9F9F9",
"(	c #B5B9B5",
"_	c #F3F3F3",
":	c #B6B9B6",
"<	c #F8F8F8",
"[	c #B6BAB6",
"}	c #B7BAB7",
"|	c #F2F2F2",
"1	c #B8BBB8",
"2	c #F1F1F1",
"3	c #B9BBB9",
"4	c #B9BCB9",
"5	c #44494B",
"6	c #BABCBA",
"7	c #F0F0F0",
"8	c #BABDBA",
"9	c #BBBDBB",
"0	c #EFEFEF",
"a	c #BBBEBB",
"b	c #EEEEEE",
"c	c #BCBEBC",
"d	c #EDEDED",
"e	c #BDBFBD",
"f	c #ECECEC",
"g	c #C5C7C5",
"h	c #E1E1E1",
"i	c #EBEBEB",
"j	c #DFDFDF",
"k	c #C7C9C7",
"l	c #DDDEDD",
"m	c #C5C6C5",
"................................",
"++++++++++++++++++++++++++++++++",
"@#$%&&&&&&&&&&&&&&&&&&&&&&&&%$#@",
"@$*=++++++++++++++++++++++++=*$@",
"-%=++++++++++++++++++++++++++=%-",
"-&+;;;;;;;;;;;;;;;;;;;;;;;;;;+&-",
"->;,,,,,,,,,,,,,,,,,,,,,,,,,,;>-",
"#>;,,,,,,,,,,,,,,,,,,,,,,,,,,;>#",
"#';))))))))))))))))))))))))));'#",
"#!;~~~~~~~~~~~~~~~~~~~~~~~~~~;!#",
"{],^^^^^^^^^^^^^^^^^^^^^^^^^^,]{",
"{],//////////////////////////,]{",
"{()//////////////////////////)({",
"_:)<<<<<<<<<<<<<<<<<<<<<<<<<<):_",
"_[~@@@@@@@@@@@@@@@@@@@@@@@@@@~[_",
"_}^--------------------------^}_",
"|}/##########################/}|",
"|1/##########################/1|",
"|1<{{{{{{{{{{{{{{{{{{{{{{{{{{<1|",
"23@__________________________@32",
"24-||||||||||5555555|||||||||-42",
"26#22222222225555555222222222#62",
"78#22222222222222222222222222#87",
"78{77777777777777777777777777{87",
"79|00000000000000000000000000|97",
"0a2bbbbbbbbbbbbbbbbbbbbbbbbbb2a0",
"0c7dddddddddddddddddddddddddd7c0",
"0c0dddddddddddddddddddddddddd0c0",
"bebffffffffffffffffffffffffffbeb",
"bghiiiiiiiiiiiiiiiiiiiiiiiiiihgb",
"bjkhffffffffffffffffffffffffhkjb",
"d7lmeeeeeeeeeeeeeeeeeeeeeeeeml7d",
"dd2-@@@@@@@@@@@@@@@@@@@@@@@@-2dd",
"dddddddddddddddddddddddddddddddd"};
