/* XPM */
static char * maximize_pressed_xpm[] = {
"32 34 61 1",
" 	c None",
".	c #8E8E8E",
"+	c #FFFFFF",
"@	c #F7F7F7",
"#	c #F5F5F5",
"$	c #DADBDA",
"%	c #B8BCB8",
"&	c #B2B6B2",
"*	c #AAAEAA",
"=	c #A7ABA7",
"-	c #F6F6F6",
";	c #A9ADA9",
">	c #B3B7B3",
",	c #ABAFAB",
"'	c #AEB1AE",
")	c #B4B7B4",
"!	c #B0B3B0",
"~	c #B4B8B4",
"{	c #B2B5B2",
"]	c #F4F4F4",
"^	c #B5B8B5",
"/	c #B7BAB7",
"(	c #B5B9B5",
"_	c #B9BCB9",
":	c #F3F3F3",
"<	c #B6B9B6",
"[	c #BBBEBB",
"}	c #B6BAB6",
"|	c #BEC0BE",
"1	c #C0C2C0",
"2	c #F2F2F2",
"3	c #C2C4C2",
"4	c #B8BBB8",
"5	c #C5C7C5",
"6	c #C7C9C7",
"7	c #F1F1F1",
"8	c #B9BBB9",
"9	c #C9CBC9",
"0	c #CCCDCC",
"a	c #BABCBA",
"b	c #CECFCE",
"c	c #F0F0F0",
"d	c #BABDBA",
"e	c #D0D1D0",
"f	c #D2D3D2",
"g	c #BBBDBB",
"h	c #D5D6D5",
"i	c #EFEFEF",
"j	c #D7D8D7",
"k	c #BCBEBC",
"l	c #D9DAD9",
"m	c #DCDCDC",
"n	c #EEEEEE",
"o	c #BDBFBD",
"p	c #DEDEDE",
"q	c #C5C6C5",
"r	c #E0E0E0",
"s	c #DFDFDF",
"t	c #EDEDED",
"u	c #DDDEDD",
"v	c #C4C6C4",
"................................",
"++++++++++++++++++++++++++++++++",
"@#$%&&&&&&&&&&&&&&&&&&&&&&&&%$#@",
"@$&*========================*&$@",
"-%*==========================*%-",
"-&;;;;;;;;;;;;;;;;;;;;;;;;;;;;&-",
"->,,,,,,,,,,,,,,,,,,,,,,,,,,,,>-",
"#>''''''''''''''''''''''''''''>#",
"#)!!!!!!!!!!!!!!!!!!!!!!!!!!!!)#",
"#~{{{{{{{{{{{{{{{{{{{{{{{{{{{{~#",
"]^^^^^^^^^^^^^^^^^^^^^^^^^^^^^^]",
"]^////////////////////////////^]",
"](____________________________(]",
":<[[[[[[[[[[+++++++++[[[[[[[[[<:",
":}||||||||||+++++++++|||||||||}:",
":/1111111111++11111++111111111/:",
"2/3333333333++33333++333333333/2",
"245555555555++55555++55555555542",
"246666666666++66666++66666666642",
"789999999999++99999++99999999987",
"7_0000000000+++++++++000000000_7",
"7abbbbbbbbbb+++++++++bbbbbbbbba7",
"cdeeeeeeeeeeeeeeeeeeeeeeeeeeeedc",
"cdffffffffffffffffffffffffffffdc",
"cghhhhhhhhhhhhhhhhhhhhhhhhhhhhgc",
"i[jjjjjjjjjjjjjjjjjjjjjjjjjjjj[i",
"ikllllllllllllllllllllllllllllki",
"ikmmmmmmmmmmmmmmmmmmmmmmmmmmmmki",
"noppppppppppppppppppppppppppppon",
"nqjrrrrrrrrrrrrrrrrrrrrrrrrrrjqn",
"nsqjrrrrrrrrrrrrrrrrrrrrrrrrjqsn",
"tcuvoooooooooooooooooooooooovuct",
"tt7-@@@@@@@@@@@@@@@@@@@@@@@@-7tt",
"tttttttttttttttttttttttttttttttt"};
