/* XPM */
static char * menu_prelight_xpm[] = {
"27 26 10 1",
" 	c None",
".	c #F6F6F6",
"+	c #F5F5F5",
"@	c #F4F4F4",
"#	c #F3F3F3",
"$	c #F2F2F2",
"%	c #F1F1F1",
"&	c #F0F0F0",
"*	c #EFEFEF",
"=	c #EEEEEE",
"...........................",
"...........................",
"...........................",
"+++++++++++++++++++++++++++",
"+++++++++++++++++++++++++++",
"+++++++++++++++++++++++++++",
"@@@@@@@@@@@@@@@@@@@@@@@@@@@",
"@@@@@@@@@@@@@@@@@@@@@@@@@@@",
"@@@@@@@@@@@@@@@@@@@@@@@@@@@",
"###########################",
"###########################",
"###########################",
"$$$$$$$$$$$$$$$$$$$$$$$$$$$",
"$$$$$$$$$$$$$$$$$$$$$$$$$$$",
"$$$$$$$$$$$$$$$$$$$$$$$$$$$",
"%%%%%%%%%%%%%%%%%%%%%%%%%%%",
"%%%%%%%%%%%%%%%%%%%%%%%%%%%",
"%%%%%%%%%%%%%%%%%%%%%%%%%%%",
"&&&&&&&&&&&&&&&&&&&&&&&&&&&",
"&&&&&&&&&&&&&&&&&&&&&&&&&&&",
"&&&&&&&&&&&&&&&&&&&&&&&&&&&",
"***************************",
"***************************",
"***************************",
"===========================",
"==========================="};
